# AST/ASF file generated using VICON BodyLanguage
# -----------------------------------------------
:version 1.10
:name VICON
:units
  mass 1.0
  length 0.45
  angle deg
:documentation
   .ast/.asf automatically generated from VICON data using
   VICON BodyBuilder and BodyLanguage model FoxedUp or BRILLIANT.MOD
:root
   order TX TY TZ RX RY RZ
   axis XYZ
   position 0 0 0  
   orientation 0 0 0 
:bonedata
  begin
     id 1 
     name lhipjoint
     direction 0.589753 -0.68606 0.426044 
     length 2.54082 
     axis 0 0 0  XYZ
  end
  begin
     id 2 
     name lfemur
     direction 0.34202 -0.939693 0  
     length 7.04539  
     axis 0 0 20  XYZ
    dof rx ry rz
    limits (-160.0 20.0)
           (-70.0 70.0)
           (-60.0 70.0)
  end
  begin
     id 3 
     name ltibia
     direction 0.34202 -0.939693 0   
     length 7.83772   
     axis 0 0 20   XYZ
    dof rx
    limits (-10.0 170.0)
  end
  begin
     id 4 
     name lfoot
     direction 0.0596604 -0.163915 0.984669   
     length 2.39542   
     axis -90 7.62852e-016 20   XYZ
    dof rx rz
    limits (-45.0 90.0)
           (-70.0 20.0)
  end
  begin
     id 5 
     name ltoes
     direction 1.53514e-011 -4.21954e-011 1   
     length 1.2047   
     axis -90 7.62852e-016 20   XYZ
    dof rx
    limits (-90.0 20.0)
  end
  begin
     id 6 
     name rhipjoint
     direction -0.580585 -0.69168 0.429534   
     length 2.52018  
     axis 0 0 0  XYZ 
  end
  begin
     id 7 
     name rfemur
     direction -0.34202 -0.939693 0   
     length 7.0101   
     axis 0 0 -20   XYZ
    dof rx ry rz
    limits (-160.0 20.0)
           (-70.0 70.0)
           (-70.0 60.0)
  end
  begin
     id 8 
     name rtibia
     direction -0.34202 -0.939693 0   
     length 7.70628   
     axis 0 0 -20   XYZ
    dof rx
    limits (-10.0 170.0)
 end
 begin
     id 9 
     name rfoot
     direction -0.0696237 -0.19129 0.979061   
     length 2.52466  
     axis -90 -7.62852e-016 -20   XYZ
    dof rx rz
    limits (-45.0 90.0)
           (-20.0 70.0)
  end
  begin
     id 10 
     name rtoes
     direction -1.53519e-011 -4.21793e-011 1   
     length 1.266   
     axis -90 -7.62852e-016 -20   XYZ
    dof rx
    limits (-90.0 20.0)
  end
  begin
     id 11 
     name lowerback
     direction 0.00381965 0.995707 -0.0924856   
     length 2.20825   
     axis 0 0 0   XYZ
    dof rx ry rz
    limits (-20.0 45.0)
           (-30.0 30.0)
           (-30.0 30.0)
  end
  begin
     id 12 
     name upperback
     direction -0.0139043 0.999634 -0.0231929   
     length 2.21517   
     axis 0 0 0   XYZ
    dof rx ry rz
    limits (-20.0 45.0)
           (-30.0 30.0)
           (-30.0 30.0)
  end
  begin
     id 13 
     name thorax
     direction -0.0143933 0.999691 0.0202892   
     length 2.22911   
     axis 0 0 0   XYZ
    dof rx ry rz
    limits (-20.0 45.0)
           (-30.0 30.0)
           (-30.0 30.0)
  end
  begin
     id 14 
     name lowerneck
     direction -0.0251153 0.981819 0.188153   
     length 1.61782   
     axis 0 0 0   XYZ
    dof rx ry rz
    limits (-20.0 45.0)
           (-30.0 30.0)
           (-30.0 30.0)
  end
  begin
     id 15 
     name upperneck
     direction 0.0563891 0.969357 -0.239095   
     length 1.64526   
     axis 0 0 0   XYZ
    dof rx ry rz
    limits (-20.0 45.0)
           (-30.0 30.0)
           (-30.0 30.0)
  end
  begin
     id 16
     name head
     direction 0.0208328 0.99459 -0.101773  
     length 1.67436  
     axis 0 0 0   XYZ
    dof rx ry rz
    limits (-20.0 45.0)
           (-30.0 30.0)
           (-30.0 30.0)
  end
  begin
     id 17 
     name lclavicle
     direction 0.917689 0.397224 0.00772059  
     length 3.31102  
     axis 0 0 0   XYZ
    dof ry rz
    limits (-20.0 10.0)
           (0.0 20.0)
  end
  begin
     id 18 
     name lhumerus
     direction 1 -4.4896e-011 2.32308e-027   
     length 5.25537   
     axis 180 -30 -90   XYZ
    dof rx ry rz
    limits (-60.0 90.0)
           (-90.0 90.0)
           (-90.0 90.0)
  end
  begin
     id 19
     name lradius
     direction 1 -4.49005e-011 -2.04271e-027   
     length 3.38855   
     axis 180 -30 -90   XYZ
    dof rx
    limits (-10.0 170.0)
  end
  begin
     id 20
     name lwrist
     direction 1 -4.48892e-011 2.56952e-028   
     length 1.69428   
     axis -5.12785e-016 90 90   XYZ
    dof ry
    limits (-180.0 0.0)
 end
  begin
     id 21 
     name lhand
     direction 1 -4.48966e-011 5.13905e-028   
     length 0.614516   
     axis -3.27915e-016 90 90   XYZ
    dof rx rz
    limits (-90.0 90.0)
           (-45.0 45.0)
  end
  begin
     id 22 
     name lfingers
     direction 1 -4.48979e-011 1.02781e-027   
     length 0.495439   
     axis -6.5583e-016 90 90   XYZ
    dof rx
    limits (0.0 90.0)
  end
  begin
     id 23
     name lthumb
     direction 0.707107 -6.35001e-011 0.707107   
     length 0.711354   
     axis -90 45 2.85299e-015   XYZ
    dof rx rz
    limits (-45.0 45.0)
           (-45.0 45.0)
  end
  begin
     id 24 
     name rclavicle
     direction -0.938556 0.342765 -0.0403177   
     length 3.27019  
     axis 0 0 0   XYZ 
    dof ry rz
    limits (-10.0 20.0)
           (-20.0 0.0)
  end
  begin
     id 25 
     name rhumerus
     direction -1 -4.48966e-011 2.52291e-027  
     length 5.38183   
     axis 180 30 90   XYZ
    dof rx ry rz
    limits (-90.0 60.0)
           (-90.0 90.0)
           (-90.0 90.0)
  end
  begin
     id 26 
     name rradius
     direction -1 -4.4896e-011 1.5797e-027   
     length 3.16988   
     axis 180 30 90   XYZ
    dof rx
    limits (-10.0 170.0)
  end
  begin
     id 27 
     name rwrist
     direction -1 -4.48947e-011 2.56952e-028   
     length 1.58494   
     axis -5.12785e-016 -90 -90   XYZ
    dof ry
    limits (-180.0 0.0)
  end
  begin
     id 28
     name rhand
     direction -1 -4.49098e-011 5.13905e-028   
     length 0.637679   
     axis -3.27915e-016 -90 -90   XYZ
    dof rx rz
    limits (-90.0 90.0)
           (-45.0 45.0)
  end
  begin
     id 29
     name rfingers
     direction -1 -4.49026e-011 1.02781e-027   
     length 0.514113   
     axis -6.5583e-016 -90 -90   XYZ
    dof rx
    limits (0.0 90.0)
  end
  begin
     id 30
     name rthumb
     direction -0.707107 -6.3491e-011 0.707107   
     length 0.738167   
     axis -90 -45 -2.85299e-015   XYZ
    dof rx rz
    limits (-45.0 45.0)
           (-45.0 45.0)
  end
:hierarchy
  begin
    root lhipjoint rhipjoint lowerback
    lhipjoint lfemur
    lfemur ltibia
    ltibia lfoot
    lfoot ltoes
    rhipjoint rfemur
    rfemur rtibia
    rtibia rfoot
    rfoot rtoes
    lowerback upperback
    upperback thorax
    thorax lowerneck lclavicle rclavicle
    lowerneck upperneck
    upperneck head
    lclavicle lhumerus
    lhumerus lradius
    lradius lwrist
    lwrist lhand lthumb
    lhand lfingers
    rclavicle rhumerus
    rhumerus rradius
    rradius rwrist
    rwrist rhand rthumb
    rhand rfingers
  end

#!OML:ASF H:\Swim\Project 1\Capture day 1\Session 1\swimmer.ASF
:FULLY-SPECIFIED
:DEGREES
3444
root 4.37252 11.8284 8.7946 96.8238 -0.147657 -2.54838
lowerback -0.521268 -1.05182 0.0047457
upperback -4.98149 -1.45678 -0.445027
thorax -4.85695 -0.749447 -0.406885
lowerneck -14.0056 -5.26428 -12.9422
upperneck -7.48076 -5.02238 19.1411
head 1.05669 -2.06697 7.83478
rclavicle -8.74653e-015 -6.4605e-016
rhumerus 28.8719 56.7896 4.32573
rradius 114.611
rwrist -35.4167
rhand -24.5479 11.0035
rfingers 7.12502
rthumb 1.94822 -18.9674
lclavicle -8.74653e-015 -6.4605e-016
lhumerus 8.29291 -56.639 20.9044
lradius 112.161
lwrist 19.3659
lhand -31.6063 10.4805
lfingers 7.12502
lthumb -4.86861 40.4046
rfemur -34.2956 8.6269 16.8627
rtibia 40.7713
rfoot -7.02101 -8.60093
rtoes -11.4059
lfemur -34.4392 -6.79369 -18.0171
ltibia 40.1145
lfoot 1.49078 4.36234
ltoes -9.14411
3445
root 4.3724 11.8294 8.77537 96.5237 -0.166741 -2.55618
lowerback -0.219067 -1.02484 -0.0480711
upperback -5.08049 -1.4239 -0.46166
thorax -5.13202 -0.730761 -0.388617
lowerneck -14.1873 -5.32921 -12.841
upperneck -7.32668 -5.12795 19.0873
head 1.14081 -2.11055 7.78671
rclavicle 4.77083e-015 2.38542e-015
rhumerus 30.0003 57.1196 4.78865
rradius 115.571
rwrist -35.4653
rhand -25.5083 11.0382
rfingers 7.12502
rthumb 1.02062 -18.9391
lclavicle 4.77083e-015 2.38542e-015
lhumerus 9.32169 -57.3183 20.5086
lradius 112.848
lwrist 18.8735
lhand -32.5927 10.6353
lfingers 7.12502
lthumb -5.82094 40.5353
rfemur -34.0993 7.96727 17.131
rtibia 41.1235
rfoot -6.91865 -8.28826
rtoes -11.4072
lfemur -34.3112 -6.3022 -18.2342
ltibia 40.3294
lfoot 1.28561 4.40134
ltoes -9.13904
3446
root 4.37261 11.8312 8.75507 96.2109 -0.187452 -2.56433
lowerback 0.0996048 -0.990715 -0.0981095
upperback -5.17233 -1.38178 -0.481183
thorax -5.40972 -0.707387 -0.375526
lowerneck -14.3331 -5.4029 -12.7652
upperneck -7.28538 -5.23222 19.0637
head 1.18875 -2.15733 7.75501
rclavicle -3.18055e-014 -4.42296e-015
rhumerus 31.0912 57.4224 5.18973
rradius 116.425
rwrist -35.411
rhand -26.5876 11.3184
rfingers 7.12502
rthumb -0.0217919 -18.6613
lclavicle -3.18055e-014 -4.42296e-015
lhumerus 10.4808 -57.9376 20.0222
lradius 113.488
lwrist 18.3778
lhand -33.661 10.7905
lfingers 7.12502
lthumb -6.85236 40.6596
rfemur -33.8851 7.31093 17.3849
rtibia 41.5125
rfoot -6.86248 -8.04356
rtoes -11.3257
lfemur -34.1624 -5.77241 -18.4571
ltibia 40.5711
lfoot 1.0889 4.40001
ltoes -9.08357
3447
root 4.37315 11.8338 8.73404 95.8858 -0.212893 -2.5735
lowerback 0.431713 -0.94934 -0.149305
upperback -5.25382 -1.3302 -0.500377
thorax -5.68481 -0.678995 -0.362368
lowerneck -14.4926 -5.48952 -12.7036
upperneck -7.28394 -5.34638 19.0365
head 1.22884 -2.20924 7.72403
rclavicle -7.15625e-015 -1.39149e-015
rhumerus 32.1382 57.6777 5.52028
rradius 117.176
rwrist -35.2586
rhand -27.7391 11.7925
rfingers 7.12502
rthumb -1.13397 -18.1843
lclavicle -7.15625e-015 -1.39149e-015
lhumerus 11.7516 -58.4639 19.4747
lradius 114.104
lwrist 17.957
lhand -34.709 10.9366
lfingers 7.12502
lthumb -7.8639 40.7703
rfemur -33.6516 6.65833 17.6192
rtibia 41.9346
rfoot -6.81937 -7.84372
rtoes -11.1533
lfemur -33.9968 -5.2033 -18.6884
ltibia 40.8482
lfoot 0.911785 4.34947
ltoes -9.05166
3448
root 4.37399 11.8373 8.71257 95.5481 -0.240558 -2.58164
lowerback 0.773944 -0.902536 -0.198859
upperback -5.32094 -1.27149 -0.519269
thorax -5.95123 -0.646917 -0.350867
lowerneck -14.6818 -5.58928 -12.6404
upperneck -7.30044 -5.47418 18.9909
head 1.26917 -2.26742 7.6854
rclavicle 1.82882e-014 5.86415e-015
rhumerus 33.1387 57.8478 5.78048
rradius 117.874
rwrist -35.0861
rhand -28.9336 12.3234
rfingers 7.12502
rthumb -2.28762 -17.644
lclavicle 1.82882e-014 5.86415e-015
lhumerus 13.1192 -58.861 18.8882
lradius 114.728
lwrist 17.6886
lhand -35.6325 11.0694
lfingers 7.12502
lthumb -8.75519 40.8678
rfemur -33.3972 6.00027 17.837
rtibia 42.387
rfoot -6.79172 -7.66434
rtoes -10.8882
lfemur -33.8187 -4.60435 -18.9216
ltibia 41.17
lfoot 0.762395 4.24935
ltoes -9.07169
3449
root 4.37505 11.8416 8.69093 95.1949 -0.26827 -2.58799
lowerback 1.1297 -0.852657 -0.243896
upperback -5.37298 -1.20878 -0.538605
thorax -6.21024 -0.61293 -0.343274
lowerneck -14.9045 -5.69613 -12.5684
upperneck -7.32221 -5.60946 18.9218
head 1.31237 -2.32847 7.63633
rclavicle 8.74653e-015 5.96354e-016
rhumerus 34.1005 57.925 5.9688
rradius 118.54
rwrist -34.9022
rhand -30.1696 12.8168
rfingers 7.12502
rthumb -3.48121 -17.1345
lclavicle 8.74653e-015 5.96354e-016
lhumerus 14.5595 -59.1213 18.2766
lradius 115.377
lwrist 17.5837
lhand -36.4146 11.2009
lfingers 7.12502
lthumb -9.50985 40.9664
rfemur -33.1177 5.33961 18.0383
rtibia 42.8695
rfoot -6.78137 -7.48275
rtoes -10.6054
lfemur -33.6297 -3.97852 -19.1511
ltibia 41.545
lfoot 0.663211 4.1083
ltoes -9.17086
3450
root 4.37613 11.8468 8.66923 94.8215 -0.297782 -2.59274
lowerback 1.51017 -0.801584 -0.28802
upperback -5.42143 -1.14503 -0.558797
thorax -6.48045 -0.578391 -0.337613
lowerneck -15.1326 -5.80155 -12.4853
upperneck -7.34693 -5.74378 18.8303
head 1.35336 -2.38944 7.57788
rclavicle 7.15625e-015 4.57205e-015
rhumerus 35.0149 57.9149 6.04736
rradius 119.227
rwrist -34.7959
rhand -31.351 13.0051
rfingers 7.12502
rthumb -4.62211 -16.9245
lclavicle 7.15625e-015 4.57205e-015
lhumerus 16.032 -59.2639 17.6728
lradius 116.07
lwrist 17.6311
lhand -37.0162 11.4088
lfingers 7.12502
lthumb -10.0903 41.1469
rfemur -32.8107 4.66944 18.2207
rtibia 43.3854
rfoot -6.78711 -7.26828
rtoes -10.4173
lfemur -33.4266 -3.33313 -19.3753
ltibia 41.98
lfoot 0.623662 3.93639
ltoes -9.33824
3451
root 4.3773 11.8528 8.64726 94.43 -0.323397 -2.59328
lowerback 1.91356 -0.749402 -0.324665
upperback -5.47066 -1.08009 -0.57992
thorax -6.76568 -0.543604 -0.337743
lowerneck -15.3578 -5.90441 -12.3968
upperneck -7.3742 -5.87553 18.7307
head 1.39167 -2.4496 7.51598
rclavicle 4.77083e-015 1.19271e-015
rhumerus 35.9008 57.842 6.0506
rradius 119.934
rwrist -34.7059
rhand -32.5772 12.957
rfingers 7.12502
rthumb -5.80607 -16.9435
lclavicle 4.77083e-015 1.19271e-015
lhumerus 17.5332 -59.3182 17.0728
lradius 116.792
lwrist 17.7156
lhand -37.5557 11.7278
lfingers 7.12502
lthumb -10.6107 41.4399
rfemur -32.4811 3.98936 18.3871
rtibia 43.9405
rfoot -6.791 -7.00128
rtoes -10.274
lfemur -33.2135 -2.67563 -19.5826
ltibia 42.4818
lfoot 0.645138 3.7511
ltoes -9.48094
3452
root 4.37846 11.8598 8.62515 94.0185 -0.347466 -2.58984
lowerback 2.34273 -0.697266 -0.354624
upperback -5.52129 -1.01579 -0.605569
thorax -7.06844 -0.509588 -0.346894
lowerneck -15.5827 -6.00353 -12.3023
upperneck -7.40684 -6.0026 18.6384
head 1.42752 -2.50765 7.45579
rclavicle -1.27222e-014 -3.27995e-015
rhumerus 36.7762 57.7195 5.99997
rradius 120.655
rwrist -34.625
rhand -33.9026 12.7721
rfingers 7.12502
rthumb -7.08558 -17.0893
lclavicle -1.27222e-014 -3.27995e-015
lhumerus 19.0628 -59.2925 16.4721
lradius 117.537
lwrist 17.8133
lhand -38.0768 12.1656
lfingers 7.12502
lthumb -11.1133 41.8513
rfemur -32.1316 3.29836 18.5329
rtibia 44.5428
rfoot -6.80568 -6.67455
rtoes -10.2815
lfemur -32.9884 -2.00576 -19.7742
ltibia 43.0548
lfoot 0.72318 3.55977
ltoes -9.5903
3453
root 4.37966 11.8677 8.60284 93.5855 -0.369296 -2.58217
lowerback 2.79966 -0.644862 -0.37704
upperback -5.57627 -0.951495 -0.633225
thorax -7.39315 -0.476056 -0.363048
lowerneck -15.8012 -6.1002 -12.2162
upperneck -7.44868 -6.12457 18.5646
head 1.45994 -2.56325 7.40365
rclavicle 7.95139e-016 -6.85807e-015
rhumerus 37.6499 57.5664 5.89439
rradius 121.368
rwrist -34.495
rhand -35.3175 12.4734
rfingers 7.12502
rthumb -8.45114 -17.3375
lclavicle 7.95139e-016 -6.85807e-015
lhumerus 20.6104 -59.2024 15.8806
lradius 118.304
lwrist 17.8681
lhand -38.6268 12.7599
lfingers 7.12502
lthumb -11.6437 42.4164
rfemur -31.7654 2.59537 18.6572
rtibia 45.2017
rfoot -6.8236 -6.28304
rtoes -10.4693
lfemur -32.7498 -1.31775 -19.9492
ltibia 43.7027
lfoot 0.852588 3.36792
ltoes -9.63697
